<mxfile host="app.diagrams.net" modified="2023-06-25T17:12:07.495Z" agent="Mozilla/5.0 (X11; Linux x86_64) AppleWebKit/537.36 (KHTML, like Gecko) Chrome/114.0.0.0 Safari/537.36" etag="mSagGUOvNbSX2Lh4NuOB" version="21.5.0" type="device">
  <diagram name="Page-1" id="j4KkUrHmV3GWsaagCfpN">
    <mxGraphModel dx="1318" dy="467" grid="1" gridSize="10" guides="1" tooltips="1" connect="1" arrows="1" fold="1" page="1" pageScale="1" pageWidth="850" pageHeight="1100" math="0" shadow="0">
      <root>
        <mxCell id="0" />
        <mxCell id="1" parent="0" />
        <mxCell id="eT5R83WgRnjZct5-d_Fm-3" value="ESP32-CAM" style="sketch=0;pointerEvents=1;shadow=0;dashed=0;html=1;strokeColor=none;fillColor=#505050;labelPosition=center;verticalLabelPosition=bottom;verticalAlign=top;outlineConnect=0;align=center;shape=mxgraph.office.devices.webcam;" parent="1" vertex="1">
          <mxGeometry x="61" y="168" width="40" height="50" as="geometry" />
        </mxCell>
        <mxCell id="eT5R83WgRnjZct5-d_Fm-21" style="edgeStyle=entityRelationEdgeStyle;rounded=0;orthogonalLoop=1;jettySize=auto;html=1;strokeColor=default;exitX=0.95;exitY=0.5;exitDx=0;exitDy=0;exitPerimeter=0;entryX=0;entryY=0.43;entryDx=0;entryDy=0;entryPerimeter=0;" parent="1" source="eT5R83WgRnjZct5-d_Fm-38" target="eT5R83WgRnjZct5-d_Fm-32" edge="1">
          <mxGeometry relative="1" as="geometry">
            <mxPoint x="359" y="189" as="sourcePoint" />
            <mxPoint x="591" y="166" as="targetPoint" />
          </mxGeometry>
        </mxCell>
        <mxCell id="eT5R83WgRnjZct5-d_Fm-16" style="edgeStyle=orthogonalEdgeStyle;rounded=0;orthogonalLoop=1;jettySize=auto;html=1;entryX=0.5;entryY=0;entryDx=0;entryDy=0;entryPerimeter=0;" parent="1" source="eT5R83WgRnjZct5-d_Fm-8" target="eT5R83WgRnjZct5-d_Fm-38" edge="1">
          <mxGeometry relative="1" as="geometry">
            <mxPoint x="320" y="154.62504545454544" as="targetPoint" />
          </mxGeometry>
        </mxCell>
        <mxCell id="eT5R83WgRnjZct5-d_Fm-8" value="Motion Sensor" style="image;aspect=fixed;perimeter=ellipsePerimeter;html=1;align=center;shadow=0;dashed=0;fontColor=#4277BB;labelBackgroundColor=default;fontSize=12;spacingTop=3;image=img/lib/ibm/users/sensor.svg;" parent="1" vertex="1">
          <mxGeometry x="61" y="30" width="40" height="40" as="geometry" />
        </mxCell>
        <mxCell id="eT5R83WgRnjZct5-d_Fm-14" value="Display Service" style="shape=image;html=1;verticalAlign=top;verticalLabelPosition=bottom;labelBackgroundColor=#ffffff;imageAspect=0;aspect=fixed;image=https://cdn4.iconfinder.com/data/icons/48-bubbles/48/24.TV-128.png" parent="1" vertex="1">
          <mxGeometry x="40" y="422" width="130" height="130" as="geometry" />
        </mxCell>
        <mxCell id="bg-rTcQURb47KX6NMPc5-14" style="edgeStyle=orthogonalEdgeStyle;rounded=0;orthogonalLoop=1;jettySize=auto;html=1;exitX=0;exitY=0.43;exitDx=0;exitDy=0;exitPerimeter=0;entryX=0.95;entryY=0.95;entryDx=0;entryDy=0;entryPerimeter=0;" parent="1" edge="1" target="eT5R83WgRnjZct5-d_Fm-32">
          <mxGeometry relative="1" as="geometry">
            <mxPoint x="751" y="278.96000000000004" as="sourcePoint" />
            <mxPoint x="660" y="220" as="targetPoint" />
          </mxGeometry>
        </mxCell>
        <mxCell id="eT5R83WgRnjZct5-d_Fm-22" value="&lt;div&gt;Image Processing &lt;br&gt;Agent&lt;/div&gt;&lt;div&gt;&lt;br&gt;&lt;/div&gt;" style="outlineConnect=0;dashed=0;verticalLabelPosition=bottom;verticalAlign=top;align=center;html=1;shape=mxgraph.aws3.agent;fillColor=#759C3E;gradientColor=none;" parent="1" vertex="1">
          <mxGeometry x="750" y="232" width="69" height="72" as="geometry" />
        </mxCell>
        <mxCell id="eT5R83WgRnjZct5-d_Fm-26" value="&lt;div&gt;Display Agent&lt;/div&gt;" style="outlineConnect=0;dashed=0;verticalLabelPosition=bottom;verticalAlign=top;align=center;html=1;shape=mxgraph.aws3.agent;fillColor=#759C3E;gradientColor=none;" parent="1" vertex="1">
          <mxGeometry x="591" y="460" width="69" height="72" as="geometry" />
        </mxCell>
        <object placeholders="1" c4Name="Spade" c4Type="SystemScopeBoundary" c4Application="Software System" label="&lt;font style=&quot;font-size: 16px&quot;&gt;&lt;b&gt;&lt;div style=&quot;text-align: left&quot;&gt;%c4Name%&lt;/div&gt;&lt;/b&gt;&lt;/font&gt;&lt;div style=&quot;text-align: left&quot;&gt;[%c4Application%]&lt;/div&gt;" id="eT5R83WgRnjZct5-d_Fm-31">
          <mxCell style="rounded=1;fontSize=11;whiteSpace=wrap;html=1;dashed=1;arcSize=20;fillColor=none;strokeColor=#666666;fontColor=#333333;labelBackgroundColor=none;align=left;verticalAlign=bottom;labelBorderColor=none;spacingTop=0;spacing=10;dashPattern=8 4;metaEdit=1;rotatable=0;perimeter=rectanglePerimeter;noLabel=0;labelPadding=0;allowArrows=0;connectable=0;expand=0;recursiveResize=0;editable=1;pointerEvents=0;absoluteArcSize=1;points=[[0.25,0,0],[0.5,0,0],[0.75,0,0],[1,0.25,0],[1,0.5,0],[1,0.75,0],[0.75,1,0],[0.5,1,0],[0.25,1,0],[0,0.75,0],[0,0.5,0],[0,0.25,0]];" parent="1" vertex="1">
            <mxGeometry x="550" y="90" width="290" height="530" as="geometry" />
          </mxCell>
        </object>
        <mxCell id="bg-rTcQURb47KX6NMPc5-8" style="edgeStyle=orthogonalEdgeStyle;rounded=0;orthogonalLoop=1;jettySize=auto;html=1;" parent="1" edge="1">
          <mxGeometry relative="1" as="geometry">
            <mxPoint x="630.0300000000002" y="220" as="sourcePoint" />
            <mxPoint x="720" y="350" as="targetPoint" />
            <Array as="points">
              <mxPoint x="630" y="300" />
              <mxPoint x="720" y="300" />
            </Array>
          </mxGeometry>
        </mxCell>
        <mxCell id="bg-rTcQURb47KX6NMPc5-13" style="edgeStyle=orthogonalEdgeStyle;rounded=0;orthogonalLoop=1;jettySize=auto;html=1;exitX=0.72;exitY=0.12;exitDx=0;exitDy=0;exitPerimeter=0;entryX=0.42;entryY=0;entryDx=0;entryDy=0;entryPerimeter=0;" parent="1" source="eT5R83WgRnjZct5-d_Fm-32" target="eT5R83WgRnjZct5-d_Fm-22" edge="1">
          <mxGeometry relative="1" as="geometry">
            <mxPoint x="720" y="230" as="targetPoint" />
          </mxGeometry>
        </mxCell>
        <mxCell id="bg-rTcQURb47KX6NMPc5-16" style="edgeStyle=orthogonalEdgeStyle;rounded=0;orthogonalLoop=1;jettySize=auto;html=1;exitX=0.12;exitY=0.72;exitDx=0;exitDy=0;exitPerimeter=0;entryX=0.12;entryY=0.12;entryDx=0;entryDy=0;entryPerimeter=0;" parent="1" source="eT5R83WgRnjZct5-d_Fm-32" target="eT5R83WgRnjZct5-d_Fm-26" edge="1">
          <mxGeometry relative="1" as="geometry" />
        </mxCell>
        <mxCell id="eT5R83WgRnjZct5-d_Fm-32" value="" style="outlineConnect=0;dashed=0;verticalLabelPosition=bottom;verticalAlign=top;align=center;html=1;shape=mxgraph.aws3.agent;fillColor=#759C3E;gradientColor=none;" parent="1" vertex="1">
          <mxGeometry x="591" y="160" width="69" height="72" as="geometry" />
        </mxCell>
        <mxCell id="eT5R83WgRnjZct5-d_Fm-38" value="" style="outlineConnect=0;dashed=0;verticalLabelPosition=bottom;verticalAlign=top;align=center;html=1;shape=mxgraph.aws3.mqtt_protocol;fillColor=#5294CF;gradientColor=none;" parent="1" vertex="1">
          <mxGeometry x="291" y="160" width="63" height="66" as="geometry" />
        </mxCell>
        <mxCell id="bg-rTcQURb47KX6NMPc5-9" style="edgeStyle=orthogonalEdgeStyle;rounded=0;orthogonalLoop=1;jettySize=auto;html=1;exitX=0;exitY=0.43;exitDx=0;exitDy=0;exitPerimeter=0;entryX=0.42;entryY=0.845;entryDx=0;entryDy=0;entryPerimeter=0;" parent="1" source="2" target="eT5R83WgRnjZct5-d_Fm-32" edge="1">
          <mxGeometry relative="1" as="geometry">
            <mxPoint x="641" y="400" as="targetPoint" />
          </mxGeometry>
        </mxCell>
        <mxCell id="bg-rTcQURb47KX6NMPc5-15" style="edgeStyle=orthogonalEdgeStyle;rounded=0;orthogonalLoop=1;jettySize=auto;html=1;exitX=0.42;exitY=0.845;exitDx=0;exitDy=0;exitPerimeter=0;entryX=0.42;entryY=0;entryDx=0;entryDy=0;entryPerimeter=0;" parent="1" source="2" target="3" edge="1">
          <mxGeometry relative="1" as="geometry" />
        </mxCell>
        <mxCell id="2" value="" style="outlineConnect=0;dashed=0;verticalLabelPosition=bottom;verticalAlign=top;align=center;html=1;shape=mxgraph.aws3.agent;fillColor=#759C3E;gradientColor=none;" parent="1" vertex="1">
          <mxGeometry x="691" y="350" width="69" height="72" as="geometry" />
        </mxCell>
        <mxCell id="3" value="Auction Participant Agent" style="outlineConnect=0;dashed=0;verticalLabelPosition=bottom;verticalAlign=top;align=center;html=1;shape=mxgraph.aws3.agent;fillColor=#759C3E;gradientColor=none;" parent="1" vertex="1">
          <mxGeometry x="720" y="470" width="69" height="72" as="geometry" />
        </mxCell>
        <mxCell id="aeWYi9QPPUx6Je2VcBAC-4" value="" style="endArrow=classic;html=1;rounded=0;entryX=0;entryY=0.5;entryDx=0;entryDy=0;entryPerimeter=0;" parent="1" edge="1">
          <mxGeometry width="50" height="50" relative="1" as="geometry">
            <mxPoint x="101" y="199" as="sourcePoint" />
            <mxPoint x="291" y="199" as="targetPoint" />
          </mxGeometry>
        </mxCell>
        <mxCell id="aeWYi9QPPUx6Je2VcBAC-5" value="" style="endArrow=classic;html=1;rounded=0;exitX=0;exitY=0.43;exitDx=0;exitDy=0;exitPerimeter=0;" parent="1" source="eT5R83WgRnjZct5-d_Fm-26" target="eT5R83WgRnjZct5-d_Fm-14" edge="1">
          <mxGeometry width="50" height="50" relative="1" as="geometry">
            <mxPoint x="240" y="440" as="sourcePoint" />
            <mxPoint x="290" y="390" as="targetPoint" />
          </mxGeometry>
        </mxCell>
        <mxCell id="D_l6Cq4tTzqtWUaAvq1v-4" value="Core Agent" style="text;html=1;align=center;verticalAlign=middle;resizable=0;points=[];autosize=1;strokeColor=none;fillColor=none;" vertex="1" parent="1">
          <mxGeometry x="580" y="130" width="80" height="30" as="geometry" />
        </mxCell>
        <mxCell id="D_l6Cq4tTzqtWUaAvq1v-5" value="" style="endArrow=classic;html=1;rounded=0;" edge="1" parent="1">
          <mxGeometry width="50" height="50" relative="1" as="geometry">
            <mxPoint x="290" y="186" as="sourcePoint" />
            <mxPoint x="101" y="186" as="targetPoint" />
          </mxGeometry>
        </mxCell>
        <mxCell id="D_l6Cq4tTzqtWUaAvq1v-6" value="Auction Agent" style="text;html=1;align=center;verticalAlign=middle;resizable=0;points=[];autosize=1;strokeColor=none;fillColor=none;" vertex="1" parent="1">
          <mxGeometry x="740" y="371" width="100" height="30" as="geometry" />
        </mxCell>
      </root>
    </mxGraphModel>
  </diagram>
</mxfile>
